<mxfile host="app.diagrams.net" modified="2022-07-21T09:34:53.429Z" agent="5.0 (Macintosh; Intel Mac OS X 10_15_7) AppleWebKit/537.36 (KHTML, like Gecko) Chrome/101.0.4951.64 Safari/537.36" etag="HUs6rDT13USPpwY_P0dO" version="20.1.3" type="github">
  <diagram id="dV-8XggYrdHnV9W1wqsp" name="第 1 页">
    <mxGraphModel dx="4583" dy="-10552" grid="1" gridSize="10" guides="1" tooltips="1" connect="1" arrows="1" fold="1" page="1" pageScale="1" pageWidth="827" pageHeight="1169" math="0" shadow="0">
      <root>
        <mxCell id="0" />
        <mxCell id="1" parent="0" />
        <mxCell id="xM2cL--7wDsP8WBkhmkB-135" value="" style="shape=partialRectangle;whiteSpace=wrap;html=1;bottom=0;right=0;fillColor=#f5f5f5;strokeColor=#666666;fontColor=#333333;" parent="1" vertex="1">
          <mxGeometry x="-1356" y="13249.75" width="816" height="59" as="geometry" />
        </mxCell>
        <mxCell id="xM2cL--7wDsP8WBkhmkB-1" value="" style="endArrow=classic;html=1;rounded=0;" parent="1" edge="1">
          <mxGeometry width="50" height="50" relative="1" as="geometry">
            <mxPoint x="-1769.9999999999995" y="12129.999999999998" as="sourcePoint" />
            <mxPoint x="-460" y="12129.999999999998" as="targetPoint" />
          </mxGeometry>
        </mxCell>
        <mxCell id="xM2cL--7wDsP8WBkhmkB-2" value="" style="shape=requiredInterface;html=1;verticalLabelPosition=bottom;sketch=0;direction=north;" parent="1" vertex="1">
          <mxGeometry x="-792.5" y="12102.5" width="157.5" height="27.5" as="geometry" />
        </mxCell>
        <mxCell id="xM2cL--7wDsP8WBkhmkB-3" value="" style="shape=requiredInterface;html=1;verticalLabelPosition=bottom;sketch=0;direction=north;" parent="1" vertex="1">
          <mxGeometry x="-983.87" y="12102.5" width="80" height="25" as="geometry" />
        </mxCell>
        <mxCell id="xM2cL--7wDsP8WBkhmkB-4" value="" style="line;strokeWidth=2;direction=south;html=1;" parent="1" vertex="1">
          <mxGeometry x="-701.5" y="12130" width="10" height="20" as="geometry" />
        </mxCell>
        <mxCell id="xM2cL--7wDsP8WBkhmkB-5" value="07-03" style="text;html=1;align=center;verticalAlign=middle;resizable=0;points=[];autosize=1;strokeColor=none;fillColor=none;" parent="1" vertex="1">
          <mxGeometry x="-720" y="12160" width="50" height="20" as="geometry" />
        </mxCell>
        <mxCell id="xM2cL--7wDsP8WBkhmkB-6" value="1.商户营业时间范围" style="text;html=1;align=center;verticalAlign=middle;resizable=0;points=[];autosize=1;strokeColor=none;fillColor=none;" parent="1" vertex="1">
          <mxGeometry x="-2020" y="12105" width="150" height="20" as="geometry" />
        </mxCell>
        <mxCell id="xM2cL--7wDsP8WBkhmkB-7" value="" style="shape=requiredInterface;html=1;verticalLabelPosition=bottom;sketch=0;direction=north;" parent="1" vertex="1">
          <mxGeometry x="-1257.5" y="12102.5" width="157.5" height="27.5" as="geometry" />
        </mxCell>
        <mxCell id="xM2cL--7wDsP8WBkhmkB-8" value="" style="shape=requiredInterface;html=1;verticalLabelPosition=bottom;sketch=0;direction=north;" parent="1" vertex="1">
          <mxGeometry x="-1448.87" y="12102.5" width="80" height="25" as="geometry" />
        </mxCell>
        <mxCell id="xM2cL--7wDsP8WBkhmkB-9" value="" style="line;strokeWidth=2;direction=south;html=1;" parent="1" vertex="1">
          <mxGeometry x="-1166.5" y="12130" width="10" height="20" as="geometry" />
        </mxCell>
        <mxCell id="xM2cL--7wDsP8WBkhmkB-10" value="07-02" style="text;html=1;align=center;verticalAlign=middle;resizable=0;points=[];autosize=1;strokeColor=none;fillColor=none;" parent="1" vertex="1">
          <mxGeometry x="-1185" y="12160" width="50" height="20" as="geometry" />
        </mxCell>
        <mxCell id="xM2cL--7wDsP8WBkhmkB-11" value="" style="line;strokeWidth=2;direction=south;html=1;" parent="1" vertex="1">
          <mxGeometry x="-1637.63" y="12130" width="10" height="20" as="geometry" />
        </mxCell>
        <mxCell id="xM2cL--7wDsP8WBkhmkB-12" value="07-01" style="text;html=1;align=center;verticalAlign=middle;resizable=0;points=[];autosize=1;strokeColor=none;fillColor=none;" parent="1" vertex="1">
          <mxGeometry x="-1656.13" y="12160" width="50" height="20" as="geometry" />
        </mxCell>
        <mxCell id="xM2cL--7wDsP8WBkhmkB-13" value="" style="shape=requiredInterface;html=1;verticalLabelPosition=bottom;sketch=0;direction=north;" parent="1" vertex="1">
          <mxGeometry x="-1740" y="12100" width="157.5" height="27.5" as="geometry" />
        </mxCell>
        <mxCell id="xM2cL--7wDsP8WBkhmkB-14" value="08:00&amp;nbsp;" style="text;html=1;align=center;verticalAlign=middle;resizable=0;points=[];autosize=1;strokeColor=none;fillColor=none;" parent="1" vertex="1">
          <mxGeometry x="-1490" y="12140" width="60" height="20" as="geometry" />
        </mxCell>
        <mxCell id="xM2cL--7wDsP8WBkhmkB-15" value="12:00" style="text;html=1;align=center;verticalAlign=middle;resizable=0;points=[];autosize=1;strokeColor=none;fillColor=none;" parent="1" vertex="1">
          <mxGeometry x="-1400" y="12140" width="50" height="20" as="geometry" />
        </mxCell>
        <mxCell id="xM2cL--7wDsP8WBkhmkB-16" value="18:00" style="text;html=1;align=center;verticalAlign=middle;resizable=0;points=[];autosize=1;strokeColor=none;fillColor=none;" parent="1" vertex="1">
          <mxGeometry x="-1295" y="12140" width="50" height="20" as="geometry" />
        </mxCell>
        <mxCell id="xM2cL--7wDsP8WBkhmkB-17" value="02:00" style="text;html=1;align=center;verticalAlign=middle;resizable=0;points=[];autosize=1;strokeColor=none;fillColor=none;" parent="1" vertex="1">
          <mxGeometry x="-1136.5" y="12140" width="50" height="20" as="geometry" />
        </mxCell>
        <mxCell id="xM2cL--7wDsP8WBkhmkB-18" value="" style="endArrow=classic;html=1;rounded=0;" parent="1" edge="1">
          <mxGeometry width="50" height="50" relative="1" as="geometry">
            <mxPoint x="-1769.9999999999995" y="12364.999999999998" as="sourcePoint" />
            <mxPoint x="-460" y="12364.999999999998" as="targetPoint" />
          </mxGeometry>
        </mxCell>
        <mxCell id="xM2cL--7wDsP8WBkhmkB-19" value="" style="shape=requiredInterface;html=1;verticalLabelPosition=bottom;sketch=0;direction=north;" parent="1" vertex="1">
          <mxGeometry x="-770" y="12337.5" width="135" height="27.5" as="geometry" />
        </mxCell>
        <mxCell id="xM2cL--7wDsP8WBkhmkB-20" value="" style="shape=requiredInterface;html=1;verticalLabelPosition=bottom;sketch=0;direction=north;" parent="1" vertex="1">
          <mxGeometry x="-960" y="12337.5" width="56.13" height="25" as="geometry" />
        </mxCell>
        <mxCell id="xM2cL--7wDsP8WBkhmkB-21" value="" style="line;strokeWidth=2;direction=south;html=1;" parent="1" vertex="1">
          <mxGeometry x="-701.5" y="12365" width="10" height="20" as="geometry" />
        </mxCell>
        <mxCell id="xM2cL--7wDsP8WBkhmkB-22" value="07-03" style="text;html=1;align=center;verticalAlign=middle;resizable=0;points=[];autosize=1;strokeColor=none;fillColor=none;" parent="1" vertex="1">
          <mxGeometry x="-720" y="12395" width="50" height="20" as="geometry" />
        </mxCell>
        <mxCell id="xM2cL--7wDsP8WBkhmkB-23" value="2.商户出餐时间范围&lt;br&gt;" style="text;html=1;align=center;verticalAlign=middle;resizable=0;points=[];autosize=1;strokeColor=none;fillColor=none;" parent="1" vertex="1">
          <mxGeometry x="-2025" y="12335" width="150" height="20" as="geometry" />
        </mxCell>
        <mxCell id="xM2cL--7wDsP8WBkhmkB-24" value="" style="shape=requiredInterface;html=1;verticalLabelPosition=bottom;sketch=0;direction=north;" parent="1" vertex="1">
          <mxGeometry x="-1240" y="12337.5" width="140" height="27.5" as="geometry" />
        </mxCell>
        <mxCell id="xM2cL--7wDsP8WBkhmkB-25" value="" style="shape=requiredInterface;html=1;verticalLabelPosition=bottom;sketch=0;direction=north;" parent="1" vertex="1">
          <mxGeometry x="-1430" y="12337.5" width="61.13" height="25" as="geometry" />
        </mxCell>
        <mxCell id="xM2cL--7wDsP8WBkhmkB-26" value="" style="line;strokeWidth=2;direction=south;html=1;" parent="1" vertex="1">
          <mxGeometry x="-1166.5" y="12365" width="10" height="20" as="geometry" />
        </mxCell>
        <mxCell id="xM2cL--7wDsP8WBkhmkB-27" value="07-02" style="text;html=1;align=center;verticalAlign=middle;resizable=0;points=[];autosize=1;strokeColor=none;fillColor=none;" parent="1" vertex="1">
          <mxGeometry x="-1185" y="12395" width="50" height="20" as="geometry" />
        </mxCell>
        <mxCell id="xM2cL--7wDsP8WBkhmkB-28" value="" style="line;strokeWidth=2;direction=south;html=1;" parent="1" vertex="1">
          <mxGeometry x="-1637.63" y="12365" width="10" height="20" as="geometry" />
        </mxCell>
        <mxCell id="xM2cL--7wDsP8WBkhmkB-29" value="07-01" style="text;html=1;align=center;verticalAlign=middle;resizable=0;points=[];autosize=1;strokeColor=none;fillColor=none;" parent="1" vertex="1">
          <mxGeometry x="-1656.13" y="12395" width="50" height="20" as="geometry" />
        </mxCell>
        <mxCell id="xM2cL--7wDsP8WBkhmkB-30" value="" style="shape=requiredInterface;html=1;verticalLabelPosition=bottom;sketch=0;direction=north;" parent="1" vertex="1">
          <mxGeometry x="-1740" y="12335" width="157.5" height="27.5" as="geometry" />
        </mxCell>
        <mxCell id="xM2cL--7wDsP8WBkhmkB-31" value="08:30&amp;nbsp;" style="text;html=1;align=center;verticalAlign=middle;resizable=0;points=[];autosize=1;strokeColor=none;fillColor=none;" parent="1" vertex="1">
          <mxGeometry x="-1460" y="12375" width="60" height="20" as="geometry" />
        </mxCell>
        <mxCell id="xM2cL--7wDsP8WBkhmkB-32" value="12:00" style="text;html=1;align=center;verticalAlign=middle;resizable=0;points=[];autosize=1;strokeColor=none;fillColor=none;" parent="1" vertex="1">
          <mxGeometry x="-1400" y="12375" width="50" height="20" as="geometry" />
        </mxCell>
        <mxCell id="xM2cL--7wDsP8WBkhmkB-33" value="18:30" style="text;html=1;align=center;verticalAlign=middle;resizable=0;points=[];autosize=1;strokeColor=none;fillColor=none;" parent="1" vertex="1">
          <mxGeometry x="-1245" y="12375" width="50" height="20" as="geometry" />
        </mxCell>
        <mxCell id="xM2cL--7wDsP8WBkhmkB-34" value="02:00" style="text;html=1;align=center;verticalAlign=middle;resizable=0;points=[];autosize=1;strokeColor=none;fillColor=none;" parent="1" vertex="1">
          <mxGeometry x="-1136.5" y="12375" width="50" height="20" as="geometry" />
        </mxCell>
        <mxCell id="xM2cL--7wDsP8WBkhmkB-35" value="" style="endArrow=none;dashed=1;html=1;dashPattern=1 3;strokeWidth=2;rounded=0;" parent="1" edge="1">
          <mxGeometry width="50" height="50" relative="1" as="geometry">
            <mxPoint x="-1257.5" y="12359.999999999998" as="sourcePoint" />
            <mxPoint x="-1257.37" y="12134.999999999998" as="targetPoint" />
          </mxGeometry>
        </mxCell>
        <mxCell id="xM2cL--7wDsP8WBkhmkB-36" value="" style="endArrow=none;dashed=1;html=1;dashPattern=1 3;strokeWidth=2;rounded=0;" parent="1" edge="1">
          <mxGeometry width="50" height="50" relative="1" as="geometry">
            <mxPoint x="-1239.83" y="12359.999999999998" as="sourcePoint" />
            <mxPoint x="-1239.7000000000007" y="12134.999999999998" as="targetPoint" />
          </mxGeometry>
        </mxCell>
        <mxCell id="xM2cL--7wDsP8WBkhmkB-37" value="" style="endArrow=none;dashed=1;html=1;dashPattern=1 3;strokeWidth=2;rounded=0;" parent="1" edge="1">
          <mxGeometry width="50" height="50" relative="1" as="geometry">
            <mxPoint x="-1448.87" y="12359.999999999998" as="sourcePoint" />
            <mxPoint x="-1448.7399999999998" y="12134.999999999998" as="targetPoint" />
          </mxGeometry>
        </mxCell>
        <mxCell id="xM2cL--7wDsP8WBkhmkB-38" value="" style="endArrow=none;dashed=1;html=1;dashPattern=1 3;strokeWidth=2;rounded=0;" parent="1" edge="1">
          <mxGeometry width="50" height="50" relative="1" as="geometry">
            <mxPoint x="-1431.1999999999998" y="12359.999999999998" as="sourcePoint" />
            <mxPoint x="-1431.0699999999997" y="12134.999999999998" as="targetPoint" />
          </mxGeometry>
        </mxCell>
        <mxCell id="xM2cL--7wDsP8WBkhmkB-39" value="" style="endArrow=none;dashed=1;html=1;dashPattern=1 3;strokeWidth=2;rounded=0;" parent="1" edge="1">
          <mxGeometry width="50" height="50" relative="1" as="geometry">
            <mxPoint x="-983.8699999999999" y="12359.999999999998" as="sourcePoint" />
            <mxPoint x="-983.7400000000007" y="12134.999999999998" as="targetPoint" />
          </mxGeometry>
        </mxCell>
        <mxCell id="xM2cL--7wDsP8WBkhmkB-40" value="" style="endArrow=none;dashed=1;html=1;dashPattern=1 3;strokeWidth=2;rounded=0;" parent="1" edge="1">
          <mxGeometry width="50" height="50" relative="1" as="geometry">
            <mxPoint x="-966.1999999999998" y="12359.999999999998" as="sourcePoint" />
            <mxPoint x="-966.0700000000006" y="12134.999999999998" as="targetPoint" />
          </mxGeometry>
        </mxCell>
        <mxCell id="xM2cL--7wDsP8WBkhmkB-41" value="" style="endArrow=none;dashed=1;html=1;dashPattern=1 3;strokeWidth=2;rounded=0;" parent="1" edge="1">
          <mxGeometry width="50" height="50" relative="1" as="geometry">
            <mxPoint x="-790.5" y="12359.999999999998" as="sourcePoint" />
            <mxPoint x="-790.3700000000008" y="12134.999999999998" as="targetPoint" />
          </mxGeometry>
        </mxCell>
        <mxCell id="xM2cL--7wDsP8WBkhmkB-42" value="" style="endArrow=none;dashed=1;html=1;dashPattern=1 3;strokeWidth=2;rounded=0;" parent="1" edge="1">
          <mxGeometry width="50" height="50" relative="1" as="geometry">
            <mxPoint x="-772.8299999999999" y="12359.999999999998" as="sourcePoint" />
            <mxPoint x="-772.7000000000007" y="12134.999999999998" as="targetPoint" />
          </mxGeometry>
        </mxCell>
        <mxCell id="xM2cL--7wDsP8WBkhmkB-43" value="承诺出餐T&lt;br&gt;30min" style="text;html=1;align=center;verticalAlign=middle;resizable=0;points=[];autosize=1;strokeColor=none;fillColor=none;" parent="1" vertex="1">
          <mxGeometry x="-1570" y="12240" width="80" height="30" as="geometry" />
        </mxCell>
        <mxCell id="xM2cL--7wDsP8WBkhmkB-44" value="" style="endArrow=none;dashed=1;html=1;rounded=0;" parent="1" target="xM2cL--7wDsP8WBkhmkB-43" edge="1">
          <mxGeometry width="50" height="50" relative="1" as="geometry">
            <mxPoint x="-1430" y="12259.999999999998" as="sourcePoint" />
            <mxPoint x="-1310" y="11930" as="targetPoint" />
          </mxGeometry>
        </mxCell>
        <mxCell id="xM2cL--7wDsP8WBkhmkB-45" value="" style="endArrow=classic;html=1;rounded=0;" parent="1" edge="1">
          <mxGeometry width="50" height="50" relative="1" as="geometry">
            <mxPoint x="-1769.9999999999995" y="12579.999999999998" as="sourcePoint" />
            <mxPoint x="-460" y="12579.999999999998" as="targetPoint" />
          </mxGeometry>
        </mxCell>
        <mxCell id="xM2cL--7wDsP8WBkhmkB-46" value="" style="shape=requiredInterface;html=1;verticalLabelPosition=bottom;sketch=0;direction=north;" parent="1" vertex="1">
          <mxGeometry x="-1400" y="12552.5" width="275" height="27.5" as="geometry" />
        </mxCell>
        <mxCell id="xM2cL--7wDsP8WBkhmkB-47" value="" style="line;strokeWidth=2;direction=south;html=1;" parent="1" vertex="1">
          <mxGeometry x="-701.5" y="12580" width="10" height="20" as="geometry" />
        </mxCell>
        <mxCell id="xM2cL--7wDsP8WBkhmkB-48" value="07-03" style="text;html=1;align=center;verticalAlign=middle;resizable=0;points=[];autosize=1;strokeColor=none;fillColor=none;" parent="1" vertex="1">
          <mxGeometry x="-720" y="12610" width="50" height="20" as="geometry" />
        </mxCell>
        <mxCell id="xM2cL--7wDsP8WBkhmkB-49" value="3.物流营业时间范围" style="text;html=1;align=center;verticalAlign=middle;resizable=0;points=[];autosize=1;strokeColor=none;fillColor=none;" parent="1" vertex="1">
          <mxGeometry x="-2025" y="12556.25" width="150" height="20" as="geometry" />
        </mxCell>
        <mxCell id="xM2cL--7wDsP8WBkhmkB-50" value="" style="line;strokeWidth=2;direction=south;html=1;" parent="1" vertex="1">
          <mxGeometry x="-1166.5" y="12580" width="10" height="20" as="geometry" />
        </mxCell>
        <mxCell id="xM2cL--7wDsP8WBkhmkB-51" value="07-02" style="text;html=1;align=center;verticalAlign=middle;resizable=0;points=[];autosize=1;strokeColor=none;fillColor=none;" parent="1" vertex="1">
          <mxGeometry x="-1185" y="12610" width="50" height="20" as="geometry" />
        </mxCell>
        <mxCell id="xM2cL--7wDsP8WBkhmkB-52" value="" style="line;strokeWidth=2;direction=south;html=1;" parent="1" vertex="1">
          <mxGeometry x="-1637.63" y="12580" width="10" height="20" as="geometry" />
        </mxCell>
        <mxCell id="xM2cL--7wDsP8WBkhmkB-53" value="07-01" style="text;html=1;align=center;verticalAlign=middle;resizable=0;points=[];autosize=1;strokeColor=none;fillColor=none;" parent="1" vertex="1">
          <mxGeometry x="-1656.13" y="12610" width="50" height="20" as="geometry" />
        </mxCell>
        <mxCell id="xM2cL--7wDsP8WBkhmkB-54" value="10:00" style="text;html=1;align=center;verticalAlign=middle;resizable=0;points=[];autosize=1;strokeColor=none;fillColor=none;" parent="1" vertex="1">
          <mxGeometry x="-1424.43" y="12590" width="50" height="20" as="geometry" />
        </mxCell>
        <mxCell id="xM2cL--7wDsP8WBkhmkB-55" value="01:00" style="text;html=1;align=center;verticalAlign=middle;resizable=0;points=[];autosize=1;strokeColor=none;fillColor=none;" parent="1" vertex="1">
          <mxGeometry x="-1136.5" y="12590" width="50" height="20" as="geometry" />
        </mxCell>
        <mxCell id="xM2cL--7wDsP8WBkhmkB-56" value="" style="shape=requiredInterface;html=1;verticalLabelPosition=bottom;sketch=0;direction=north;" parent="1" vertex="1">
          <mxGeometry x="-930" y="12552.5" width="279.5" height="27.5" as="geometry" />
        </mxCell>
        <mxCell id="xM2cL--7wDsP8WBkhmkB-57" value="10:00" style="text;html=1;align=center;verticalAlign=middle;resizable=0;points=[];autosize=1;strokeColor=none;fillColor=none;" parent="1" vertex="1">
          <mxGeometry x="-945" y="12590" width="50" height="20" as="geometry" />
        </mxCell>
        <mxCell id="xM2cL--7wDsP8WBkhmkB-58" value="01:00" style="text;html=1;align=center;verticalAlign=middle;resizable=0;points=[];autosize=1;strokeColor=none;fillColor=none;" parent="1" vertex="1">
          <mxGeometry x="-670" y="12590" width="50" height="20" as="geometry" />
        </mxCell>
        <mxCell id="xM2cL--7wDsP8WBkhmkB-59" value="专送，有营业时间范围&lt;br&gt;非专送，则全天营业。&amp;nbsp;" style="text;html=1;align=center;verticalAlign=middle;resizable=0;points=[];autosize=1;strokeColor=none;fillColor=none;" parent="1" vertex="1">
          <mxGeometry x="-1776.13" y="12527.5" width="170" height="30" as="geometry" />
        </mxCell>
        <mxCell id="xM2cL--7wDsP8WBkhmkB-60" value="" style="endArrow=classic;html=1;rounded=0;" parent="1" edge="1">
          <mxGeometry width="50" height="50" relative="1" as="geometry">
            <mxPoint x="-1769.9999999999995" y="12827.499999999998" as="sourcePoint" />
            <mxPoint x="-460" y="12827.499999999998" as="targetPoint" />
          </mxGeometry>
        </mxCell>
        <mxCell id="xM2cL--7wDsP8WBkhmkB-61" value="" style="line;strokeWidth=2;direction=south;html=1;" parent="1" vertex="1">
          <mxGeometry x="-701.5" y="12827.5" width="10" height="20" as="geometry" />
        </mxCell>
        <mxCell id="xM2cL--7wDsP8WBkhmkB-62" value="07-03" style="text;html=1;align=center;verticalAlign=middle;resizable=0;points=[];autosize=1;strokeColor=none;fillColor=none;" parent="1" vertex="1">
          <mxGeometry x="-720" y="12857.5" width="50" height="20" as="geometry" />
        </mxCell>
        <mxCell id="xM2cL--7wDsP8WBkhmkB-63" value="" style="line;strokeWidth=2;direction=south;html=1;" parent="1" vertex="1">
          <mxGeometry x="-1166.5" y="12827.5" width="10" height="20" as="geometry" />
        </mxCell>
        <mxCell id="xM2cL--7wDsP8WBkhmkB-64" value="07-02" style="text;html=1;align=center;verticalAlign=middle;resizable=0;points=[];autosize=1;strokeColor=none;fillColor=none;" parent="1" vertex="1">
          <mxGeometry x="-1185" y="12857.5" width="50" height="20" as="geometry" />
        </mxCell>
        <mxCell id="xM2cL--7wDsP8WBkhmkB-65" value="" style="line;strokeWidth=2;direction=south;html=1;" parent="1" vertex="1">
          <mxGeometry x="-1637.63" y="12827.5" width="10" height="20" as="geometry" />
        </mxCell>
        <mxCell id="xM2cL--7wDsP8WBkhmkB-66" value="07-01" style="text;html=1;align=center;verticalAlign=middle;resizable=0;points=[];autosize=1;strokeColor=none;fillColor=none;" parent="1" vertex="1">
          <mxGeometry x="-1656.13" y="12857.5" width="50" height="20" as="geometry" />
        </mxCell>
        <mxCell id="xM2cL--7wDsP8WBkhmkB-67" value="4.骑手取餐时间范围" style="text;html=1;align=center;verticalAlign=middle;resizable=0;points=[];autosize=1;strokeColor=none;fillColor=none;" parent="1" vertex="1">
          <mxGeometry x="-2030" y="12800" width="150" height="20" as="geometry" />
        </mxCell>
        <mxCell id="xM2cL--7wDsP8WBkhmkB-68" value="（限定商户在营业时间内出餐）" style="text;html=1;align=center;verticalAlign=middle;resizable=0;points=[];autosize=1;strokeColor=none;fillColor=none;" parent="1" vertex="1">
          <mxGeometry x="-2030" y="12370" width="230" height="20" as="geometry" />
        </mxCell>
        <mxCell id="xM2cL--7wDsP8WBkhmkB-69" value="以专送为例" style="text;html=1;align=center;verticalAlign=middle;resizable=0;points=[];autosize=1;strokeColor=none;fillColor=none;" parent="1" vertex="1">
          <mxGeometry x="-1770.13" y="12770" width="90" height="20" as="geometry" />
        </mxCell>
        <mxCell id="xM2cL--7wDsP8WBkhmkB-70" value="" style="endArrow=none;dashed=1;html=1;dashPattern=1 3;strokeWidth=2;rounded=0;" parent="1" edge="1">
          <mxGeometry width="50" height="50" relative="1" as="geometry">
            <mxPoint x="-1400" y="12829.999999999998" as="sourcePoint" />
            <mxPoint x="-1400" y="12364.999999999998" as="targetPoint" />
          </mxGeometry>
        </mxCell>
        <mxCell id="xM2cL--7wDsP8WBkhmkB-71" value="" style="endArrow=none;dashed=1;html=1;dashPattern=1 3;strokeWidth=2;rounded=0;" parent="1" edge="1">
          <mxGeometry width="50" height="50" relative="1" as="geometry">
            <mxPoint x="-1368.87" y="12824.999999999998" as="sourcePoint" />
            <mxPoint x="-1368.87" y="12359.999999999998" as="targetPoint" />
          </mxGeometry>
        </mxCell>
        <mxCell id="xM2cL--7wDsP8WBkhmkB-72" value="" style="endArrow=none;dashed=1;html=1;dashPattern=1 3;strokeWidth=2;rounded=0;" parent="1" edge="1">
          <mxGeometry width="50" height="50" relative="1" as="geometry">
            <mxPoint x="-1240" y="12824.999999999998" as="sourcePoint" />
            <mxPoint x="-1240" y="12359.999999999998" as="targetPoint" />
          </mxGeometry>
        </mxCell>
        <mxCell id="xM2cL--7wDsP8WBkhmkB-73" value="" style="endArrow=none;dashed=1;html=1;dashPattern=1 3;strokeWidth=2;rounded=0;" parent="1" edge="1">
          <mxGeometry width="50" height="50" relative="1" as="geometry">
            <mxPoint x="-1125" y="12829.999999999998" as="sourcePoint" />
            <mxPoint x="-1125" y="12364.999999999998" as="targetPoint" />
          </mxGeometry>
        </mxCell>
        <mxCell id="xM2cL--7wDsP8WBkhmkB-74" value="" style="endArrow=none;dashed=1;html=1;dashPattern=1 3;strokeWidth=2;rounded=0;" parent="1" edge="1">
          <mxGeometry width="50" height="50" relative="1" as="geometry">
            <mxPoint x="-930" y="12832.499999999998" as="sourcePoint" />
            <mxPoint x="-930" y="12367.499999999998" as="targetPoint" />
          </mxGeometry>
        </mxCell>
        <mxCell id="xM2cL--7wDsP8WBkhmkB-75" value="" style="endArrow=none;dashed=1;html=1;dashPattern=1 3;strokeWidth=2;rounded=0;" parent="1" edge="1">
          <mxGeometry width="50" height="50" relative="1" as="geometry">
            <mxPoint x="-903.8699999999999" y="12832.499999999998" as="sourcePoint" />
            <mxPoint x="-903.8699999999999" y="12367.499999999998" as="targetPoint" />
          </mxGeometry>
        </mxCell>
        <mxCell id="xM2cL--7wDsP8WBkhmkB-76" value="" style="endArrow=none;dashed=1;html=1;dashPattern=1 3;strokeWidth=2;rounded=0;" parent="1" edge="1">
          <mxGeometry width="50" height="50" relative="1" as="geometry">
            <mxPoint x="-771" y="12829.999999999998" as="sourcePoint" />
            <mxPoint x="-771" y="12364.999999999998" as="targetPoint" />
          </mxGeometry>
        </mxCell>
        <mxCell id="xM2cL--7wDsP8WBkhmkB-77" value="" style="endArrow=none;dashed=1;html=1;dashPattern=1 3;strokeWidth=2;rounded=0;" parent="1" edge="1">
          <mxGeometry width="50" height="50" relative="1" as="geometry">
            <mxPoint x="-650" y="12824.999999999998" as="sourcePoint" />
            <mxPoint x="-650" y="12359.999999999998" as="targetPoint" />
          </mxGeometry>
        </mxCell>
        <mxCell id="xM2cL--7wDsP8WBkhmkB-78" value="商户出餐时间范围与&lt;br&gt;物流营业时间范围取交集" style="text;html=1;align=center;verticalAlign=middle;resizable=0;points=[];autosize=1;strokeColor=none;fillColor=none;" parent="1" vertex="1">
          <mxGeometry x="-2025" y="12832.5" width="180" height="30" as="geometry" />
        </mxCell>
        <mxCell id="xM2cL--7wDsP8WBkhmkB-79" value="" style="shape=requiredInterface;html=1;verticalLabelPosition=bottom;sketch=0;direction=north;" parent="1" vertex="1">
          <mxGeometry x="-1400" y="12810" width="30" height="17.5" as="geometry" />
        </mxCell>
        <mxCell id="xM2cL--7wDsP8WBkhmkB-80" value="" style="shape=requiredInterface;html=1;verticalLabelPosition=bottom;sketch=0;direction=north;" parent="1" vertex="1">
          <mxGeometry x="-1240" y="12800" width="110" height="25" as="geometry" />
        </mxCell>
        <mxCell id="xM2cL--7wDsP8WBkhmkB-81" value="" style="shape=requiredInterface;html=1;verticalLabelPosition=bottom;sketch=0;direction=north;" parent="1" vertex="1">
          <mxGeometry x="-933" y="12807.5" width="30" height="17.5" as="geometry" />
        </mxCell>
        <mxCell id="xM2cL--7wDsP8WBkhmkB-82" value="" style="shape=requiredInterface;html=1;verticalLabelPosition=bottom;sketch=0;direction=north;" parent="1" vertex="1">
          <mxGeometry x="-768.75" y="12803.75" width="118.75" height="25" as="geometry" />
        </mxCell>
        <mxCell id="xM2cL--7wDsP8WBkhmkB-83" value="10:00" style="text;html=1;align=center;verticalAlign=middle;resizable=0;points=[];autosize=1;strokeColor=none;fillColor=none;" parent="1" vertex="1">
          <mxGeometry x="-1445" y="12840" width="50" height="20" as="geometry" />
        </mxCell>
        <mxCell id="xM2cL--7wDsP8WBkhmkB-84" value="12:00" style="text;html=1;align=center;verticalAlign=middle;resizable=0;points=[];autosize=1;strokeColor=none;fillColor=none;" parent="1" vertex="1">
          <mxGeometry x="-1380" y="12840" width="50" height="20" as="geometry" />
        </mxCell>
        <mxCell id="xM2cL--7wDsP8WBkhmkB-85" value="18:30" style="text;html=1;align=center;verticalAlign=middle;resizable=0;points=[];autosize=1;strokeColor=none;fillColor=none;" parent="1" vertex="1">
          <mxGeometry x="-1265" y="12840" width="50" height="20" as="geometry" />
        </mxCell>
        <mxCell id="xM2cL--7wDsP8WBkhmkB-86" value="01:00" style="text;html=1;align=center;verticalAlign=middle;resizable=0;points=[];autosize=1;strokeColor=none;fillColor=none;" parent="1" vertex="1">
          <mxGeometry x="-1145" y="12840" width="50" height="20" as="geometry" />
        </mxCell>
        <mxCell id="xM2cL--7wDsP8WBkhmkB-87" value="" style="endArrow=classic;html=1;rounded=0;" parent="1" edge="1">
          <mxGeometry width="50" height="50" relative="1" as="geometry">
            <mxPoint x="-1769.9999999999995" y="13067.499999999998" as="sourcePoint" />
            <mxPoint x="-460" y="13067.499999999998" as="targetPoint" />
          </mxGeometry>
        </mxCell>
        <mxCell id="xM2cL--7wDsP8WBkhmkB-88" value="" style="line;strokeWidth=2;direction=south;html=1;" parent="1" vertex="1">
          <mxGeometry x="-701.5" y="13067.5" width="10" height="20" as="geometry" />
        </mxCell>
        <mxCell id="xM2cL--7wDsP8WBkhmkB-89" value="07-03" style="text;html=1;align=center;verticalAlign=middle;resizable=0;points=[];autosize=1;strokeColor=none;fillColor=none;" parent="1" vertex="1">
          <mxGeometry x="-720" y="13097.5" width="50" height="20" as="geometry" />
        </mxCell>
        <mxCell id="xM2cL--7wDsP8WBkhmkB-90" value="" style="line;strokeWidth=2;direction=south;html=1;" parent="1" vertex="1">
          <mxGeometry x="-1166.5" y="13067.5" width="10" height="20" as="geometry" />
        </mxCell>
        <mxCell id="xM2cL--7wDsP8WBkhmkB-91" value="07-02" style="text;html=1;align=center;verticalAlign=middle;resizable=0;points=[];autosize=1;strokeColor=none;fillColor=none;" parent="1" vertex="1">
          <mxGeometry x="-1185" y="13097.5" width="50" height="20" as="geometry" />
        </mxCell>
        <mxCell id="xM2cL--7wDsP8WBkhmkB-92" value="" style="line;strokeWidth=2;direction=south;html=1;" parent="1" vertex="1">
          <mxGeometry x="-1637.63" y="13067.5" width="10" height="20" as="geometry" />
        </mxCell>
        <mxCell id="xM2cL--7wDsP8WBkhmkB-93" value="07-01" style="text;html=1;align=center;verticalAlign=middle;resizable=0;points=[];autosize=1;strokeColor=none;fillColor=none;" parent="1" vertex="1">
          <mxGeometry x="-1656.13" y="13097.5" width="50" height="20" as="geometry" />
        </mxCell>
        <mxCell id="xM2cL--7wDsP8WBkhmkB-94" value="5.骑手预计送达时间范围" style="text;html=1;align=center;verticalAlign=middle;resizable=0;points=[];autosize=1;strokeColor=none;fillColor=none;" parent="1" vertex="1">
          <mxGeometry x="-2045" y="13040" width="180" height="20" as="geometry" />
        </mxCell>
        <mxCell id="xM2cL--7wDsP8WBkhmkB-95" value="结合不同时段算法返回的配送T" style="text;html=1;align=center;verticalAlign=middle;resizable=0;points=[];autosize=1;strokeColor=none;fillColor=none;" parent="1" vertex="1">
          <mxGeometry x="-2030" y="13077.5" width="220" height="20" as="geometry" />
        </mxCell>
        <mxCell id="xM2cL--7wDsP8WBkhmkB-96" value="" style="shape=requiredInterface;html=1;verticalLabelPosition=bottom;sketch=0;direction=north;" parent="1" vertex="1">
          <mxGeometry x="-1380" y="13047.5" width="30" height="17.5" as="geometry" />
        </mxCell>
        <mxCell id="xM2cL--7wDsP8WBkhmkB-97" value="" style="shape=requiredInterface;html=1;verticalLabelPosition=bottom;sketch=0;direction=north;" parent="1" vertex="1">
          <mxGeometry x="-1210" y="13042.5" width="110" height="25" as="geometry" />
        </mxCell>
        <mxCell id="xM2cL--7wDsP8WBkhmkB-98" value="" style="shape=requiredInterface;html=1;verticalLabelPosition=bottom;sketch=0;direction=north;" parent="1" vertex="1">
          <mxGeometry x="-910" y="13047.5" width="30" height="17.5" as="geometry" />
        </mxCell>
        <mxCell id="xM2cL--7wDsP8WBkhmkB-99" value="" style="shape=requiredInterface;html=1;verticalLabelPosition=bottom;sketch=0;direction=north;" parent="1" vertex="1">
          <mxGeometry x="-738.75" y="13042.5" width="118.75" height="25" as="geometry" />
        </mxCell>
        <mxCell id="xM2cL--7wDsP8WBkhmkB-100" value="10:30" style="text;html=1;align=center;verticalAlign=middle;resizable=0;points=[];autosize=1;strokeColor=none;fillColor=none;" parent="1" vertex="1">
          <mxGeometry x="-1424.43" y="13077.5" width="50" height="20" as="geometry" />
        </mxCell>
        <mxCell id="xM2cL--7wDsP8WBkhmkB-101" value="12:30" style="text;html=1;align=center;verticalAlign=middle;resizable=0;points=[];autosize=1;strokeColor=none;fillColor=none;" parent="1" vertex="1">
          <mxGeometry x="-1360" y="13080" width="50" height="20" as="geometry" />
        </mxCell>
        <mxCell id="xM2cL--7wDsP8WBkhmkB-102" value="18:40" style="text;html=1;align=center;verticalAlign=middle;resizable=0;points=[];autosize=1;strokeColor=none;fillColor=none;" parent="1" vertex="1">
          <mxGeometry x="-1257.5" y="13080" width="50" height="20" as="geometry" />
        </mxCell>
        <mxCell id="xM2cL--7wDsP8WBkhmkB-103" value="01:40" style="text;html=1;align=center;verticalAlign=middle;resizable=0;points=[];autosize=1;strokeColor=none;fillColor=none;" parent="1" vertex="1">
          <mxGeometry x="-1145" y="13080" width="50" height="20" as="geometry" />
        </mxCell>
        <mxCell id="xM2cL--7wDsP8WBkhmkB-104" value="" style="endArrow=none;dashed=1;html=1;dashPattern=1 3;strokeWidth=2;rounded=0;" parent="1" edge="1">
          <mxGeometry width="50" height="50" relative="1" as="geometry">
            <mxPoint x="-1380" y="13069.999999999998" as="sourcePoint" />
            <mxPoint x="-1399.9300000000003" y="12832.499999999998" as="targetPoint" />
          </mxGeometry>
        </mxCell>
        <mxCell id="xM2cL--7wDsP8WBkhmkB-105" value="配送T1&lt;br&gt;30min" style="text;html=1;align=center;verticalAlign=middle;resizable=0;points=[];autosize=1;strokeColor=none;fillColor=none;" parent="1" vertex="1">
          <mxGeometry x="-1360" y="12940" width="60" height="30" as="geometry" />
        </mxCell>
        <mxCell id="xM2cL--7wDsP8WBkhmkB-106" value="" style="endArrow=none;dashed=1;html=1;dashPattern=1 3;strokeWidth=2;rounded=0;" parent="1" edge="1">
          <mxGeometry width="50" height="50" relative="1" as="geometry">
            <mxPoint x="-1348.9400000000005" y="13068.749999999998" as="sourcePoint" />
            <mxPoint x="-1368.8700000000008" y="12831.249999999998" as="targetPoint" />
          </mxGeometry>
        </mxCell>
        <mxCell id="xM2cL--7wDsP8WBkhmkB-107" style="edgeStyle=orthogonalEdgeStyle;rounded=0;orthogonalLoop=1;jettySize=auto;html=1;exitX=0;exitY=0.5;exitDx=0;exitDy=0;exitPerimeter=0;" parent="1" source="xM2cL--7wDsP8WBkhmkB-98" target="xM2cL--7wDsP8WBkhmkB-98" edge="1">
          <mxGeometry relative="1" as="geometry" />
        </mxCell>
        <mxCell id="xM2cL--7wDsP8WBkhmkB-108" value="" style="endArrow=none;dashed=1;html=1;dashPattern=1 3;strokeWidth=2;rounded=0;" parent="1" edge="1">
          <mxGeometry width="50" height="50" relative="1" as="geometry">
            <mxPoint x="-1215" y="13066.249999999998" as="sourcePoint" />
            <mxPoint x="-1234.9300000000003" y="12828.749999999998" as="targetPoint" />
          </mxGeometry>
        </mxCell>
        <mxCell id="xM2cL--7wDsP8WBkhmkB-109" value="" style="endArrow=none;dashed=1;html=1;dashPattern=1 3;strokeWidth=2;rounded=0;exitX=0.1;exitY=1.036;exitDx=0;exitDy=0;exitPerimeter=0;" parent="1" source="xM2cL--7wDsP8WBkhmkB-97" edge="1">
          <mxGeometry width="50" height="50" relative="1" as="geometry">
            <mxPoint x="-1105.07" y="13062.5" as="sourcePoint" />
            <mxPoint x="-1125" y="12824.999999999998" as="targetPoint" />
          </mxGeometry>
        </mxCell>
        <mxCell id="xM2cL--7wDsP8WBkhmkB-110" value="配送T2 &lt;br&gt;40min" style="text;html=1;align=center;verticalAlign=middle;resizable=0;points=[];autosize=1;strokeColor=none;fillColor=none;" parent="1" vertex="1">
          <mxGeometry x="-1111.5" y="12940" width="60" height="30" as="geometry" />
        </mxCell>
        <mxCell id="xM2cL--7wDsP8WBkhmkB-111" value="" style="endArrow=none;dashed=1;html=1;dashPattern=1 3;strokeWidth=2;rounded=0;exitX=0.057;exitY=-0.167;exitDx=0;exitDy=0;exitPerimeter=0;" parent="1" source="xM2cL--7wDsP8WBkhmkB-98" edge="1">
          <mxGeometry width="50" height="50" relative="1" as="geometry">
            <mxPoint x="-903.0000000000009" y="13067.5" as="sourcePoint" />
            <mxPoint x="-931.96" y="12827.499999999998" as="targetPoint" />
          </mxGeometry>
        </mxCell>
        <mxCell id="xM2cL--7wDsP8WBkhmkB-112" value="" style="endArrow=none;dashed=1;html=1;dashPattern=1 3;strokeWidth=2;rounded=0;exitX=0.114;exitY=0.967;exitDx=0;exitDy=0;exitPerimeter=0;" parent="1" source="xM2cL--7wDsP8WBkhmkB-98" edge="1">
          <mxGeometry width="50" height="50" relative="1" as="geometry">
            <mxPoint x="-886.5200000000002" y="13067.5025" as="sourcePoint" />
            <mxPoint x="-903.4700000000003" y="12831" as="targetPoint" />
          </mxGeometry>
        </mxCell>
        <mxCell id="xM2cL--7wDsP8WBkhmkB-113" value="" style="endArrow=none;dashed=1;html=1;dashPattern=1 3;strokeWidth=2;rounded=0;exitX=0.114;exitY=0.967;exitDx=0;exitDy=0;exitPerimeter=0;" parent="1" edge="1">
          <mxGeometry width="50" height="50" relative="1" as="geometry">
            <mxPoint x="-740" y="13057.004999999997" as="sourcePoint" />
            <mxPoint x="-762.4800000000005" y="12824.999999999998" as="targetPoint" />
          </mxGeometry>
        </mxCell>
        <mxCell id="xM2cL--7wDsP8WBkhmkB-114" value="" style="endArrow=none;dashed=1;html=1;dashPattern=1 3;strokeWidth=2;rounded=0;exitX=0.114;exitY=0.967;exitDx=0;exitDy=0;exitPerimeter=0;" parent="1" edge="1">
          <mxGeometry width="50" height="50" relative="1" as="geometry">
            <mxPoint x="-623.75" y="13060.005" as="sourcePoint" />
            <mxPoint x="-646.2300000000005" y="12828" as="targetPoint" />
          </mxGeometry>
        </mxCell>
        <mxCell id="xM2cL--7wDsP8WBkhmkB-115" value="配送T3" style="text;html=1;align=center;verticalAlign=middle;resizable=0;points=[];autosize=1;strokeColor=none;fillColor=none;" parent="1" vertex="1">
          <mxGeometry x="-890" y="12930" width="60" height="20" as="geometry" />
        </mxCell>
        <mxCell id="xM2cL--7wDsP8WBkhmkB-116" value="配送T4" style="text;html=1;align=center;verticalAlign=middle;resizable=0;points=[];autosize=1;strokeColor=none;fillColor=none;" parent="1" vertex="1">
          <mxGeometry x="-640" y="12930" width="60" height="20" as="geometry" />
        </mxCell>
        <mxCell id="xM2cL--7wDsP8WBkhmkB-117" value="" style="endArrow=classic;html=1;rounded=0;" parent="1" edge="1">
          <mxGeometry width="50" height="50" relative="1" as="geometry">
            <mxPoint x="-1759.9999999999995" y="13308.749999999998" as="sourcePoint" />
            <mxPoint x="-450" y="13308.749999999998" as="targetPoint" />
          </mxGeometry>
        </mxCell>
        <mxCell id="xM2cL--7wDsP8WBkhmkB-118" value="" style="line;strokeWidth=2;direction=south;html=1;" parent="1" vertex="1">
          <mxGeometry x="-691.5" y="13308.75" width="10" height="20" as="geometry" />
        </mxCell>
        <mxCell id="xM2cL--7wDsP8WBkhmkB-119" value="07-03" style="text;html=1;align=center;verticalAlign=middle;resizable=0;points=[];autosize=1;strokeColor=none;fillColor=none;" parent="1" vertex="1">
          <mxGeometry x="-710" y="13338.75" width="50" height="20" as="geometry" />
        </mxCell>
        <mxCell id="xM2cL--7wDsP8WBkhmkB-120" value="" style="line;strokeWidth=2;direction=south;html=1;" parent="1" vertex="1">
          <mxGeometry x="-1156.5" y="13308.75" width="10" height="20" as="geometry" />
        </mxCell>
        <mxCell id="xM2cL--7wDsP8WBkhmkB-121" value="07-02" style="text;html=1;align=center;verticalAlign=middle;resizable=0;points=[];autosize=1;strokeColor=none;fillColor=none;" parent="1" vertex="1">
          <mxGeometry x="-1175" y="13338.75" width="50" height="20" as="geometry" />
        </mxCell>
        <mxCell id="xM2cL--7wDsP8WBkhmkB-122" value="" style="line;strokeWidth=2;direction=south;html=1;" parent="1" vertex="1">
          <mxGeometry x="-1627.63" y="13308.75" width="10" height="20" as="geometry" />
        </mxCell>
        <mxCell id="xM2cL--7wDsP8WBkhmkB-123" value="07-01" style="text;html=1;align=center;verticalAlign=middle;resizable=0;points=[];autosize=1;strokeColor=none;fillColor=none;" parent="1" vertex="1">
          <mxGeometry x="-1646.13" y="13338.75" width="50" height="20" as="geometry" />
        </mxCell>
        <mxCell id="xM2cL--7wDsP8WBkhmkB-124" value="6.根据即使单T取交集" style="text;html=1;align=center;verticalAlign=middle;resizable=0;points=[];autosize=1;strokeColor=none;fillColor=none;" parent="1" vertex="1">
          <mxGeometry x="-2045" y="13276.25" width="170" height="30" as="geometry" />
        </mxCell>
        <mxCell id="xM2cL--7wDsP8WBkhmkB-125" value="用户T之前的范围已经成为过去" style="text;html=1;align=center;verticalAlign=middle;resizable=0;points=[];autosize=1;strokeColor=none;fillColor=none;" parent="1" vertex="1">
          <mxGeometry x="-2030" y="13318.75" width="220" height="20" as="geometry" />
        </mxCell>
        <mxCell id="xM2cL--7wDsP8WBkhmkB-126" value="" style="shape=requiredInterface;html=1;verticalLabelPosition=bottom;sketch=0;direction=north;" parent="1" vertex="1">
          <mxGeometry x="-1370" y="13288.75" width="30" height="17.5" as="geometry" />
        </mxCell>
        <mxCell id="xM2cL--7wDsP8WBkhmkB-127" value="" style="shape=requiredInterface;html=1;verticalLabelPosition=bottom;sketch=0;direction=north;" parent="1" vertex="1">
          <mxGeometry x="-1200" y="13283.75" width="110" height="25" as="geometry" />
        </mxCell>
        <mxCell id="xM2cL--7wDsP8WBkhmkB-128" value="" style="shape=requiredInterface;html=1;verticalLabelPosition=bottom;sketch=0;direction=north;" parent="1" vertex="1">
          <mxGeometry x="-900" y="13288.75" width="30" height="17.5" as="geometry" />
        </mxCell>
        <mxCell id="xM2cL--7wDsP8WBkhmkB-129" value="" style="shape=requiredInterface;html=1;verticalLabelPosition=bottom;sketch=0;direction=north;" parent="1" vertex="1">
          <mxGeometry x="-728.75" y="13283.75" width="118.75" height="25" as="geometry" />
        </mxCell>
        <mxCell id="xM2cL--7wDsP8WBkhmkB-130" value="10:30" style="text;html=1;align=center;verticalAlign=middle;resizable=0;points=[];autosize=1;strokeColor=none;fillColor=none;" parent="1" vertex="1">
          <mxGeometry x="-1414.43" y="13318.75" width="50" height="20" as="geometry" />
        </mxCell>
        <mxCell id="xM2cL--7wDsP8WBkhmkB-131" value="12:30" style="text;html=1;align=center;verticalAlign=middle;resizable=0;points=[];autosize=1;strokeColor=none;fillColor=none;" parent="1" vertex="1">
          <mxGeometry x="-1350" y="13321.25" width="50" height="20" as="geometry" />
        </mxCell>
        <mxCell id="xM2cL--7wDsP8WBkhmkB-132" value="18:40" style="text;html=1;align=center;verticalAlign=middle;resizable=0;points=[];autosize=1;strokeColor=none;fillColor=none;" parent="1" vertex="1">
          <mxGeometry x="-1247.5" y="13321.25" width="50" height="20" as="geometry" />
        </mxCell>
        <mxCell id="xM2cL--7wDsP8WBkhmkB-133" value="01:40" style="text;html=1;align=center;verticalAlign=middle;resizable=0;points=[];autosize=1;strokeColor=none;fillColor=none;" parent="1" vertex="1">
          <mxGeometry x="-1135" y="13321.25" width="50" height="20" as="geometry" />
        </mxCell>
        <mxCell id="xM2cL--7wDsP8WBkhmkB-134" style="edgeStyle=orthogonalEdgeStyle;rounded=0;orthogonalLoop=1;jettySize=auto;html=1;exitX=0;exitY=0.5;exitDx=0;exitDy=0;exitPerimeter=0;" parent="1" source="xM2cL--7wDsP8WBkhmkB-128" target="xM2cL--7wDsP8WBkhmkB-128" edge="1">
          <mxGeometry relative="1" as="geometry" />
        </mxCell>
        <mxCell id="xM2cL--7wDsP8WBkhmkB-136" value="用户预计送达时间点" style="text;html=1;align=center;verticalAlign=middle;resizable=0;points=[];autosize=1;strokeColor=none;fillColor=none;" parent="1" vertex="1">
          <mxGeometry x="-1300" y="13210" width="150" height="20" as="geometry" />
        </mxCell>
        <mxCell id="qGyewd1HaiOMTMRlGh1_-1" value="7.加buf，取整" style="text;html=1;align=center;verticalAlign=middle;resizable=0;points=[];autosize=1;strokeColor=none;fillColor=none;" vertex="1" parent="1">
          <mxGeometry x="-2050" y="13530" width="120" height="30" as="geometry" />
        </mxCell>
        <mxCell id="qGyewd1HaiOMTMRlGh1_-2" value="" style="endArrow=classic;html=1;rounded=0;" edge="1" parent="1">
          <mxGeometry width="50" height="50" relative="1" as="geometry">
            <mxPoint x="-1764.9999999999995" y="13562.499999999998" as="sourcePoint" />
            <mxPoint x="-455" y="13562.499999999998" as="targetPoint" />
          </mxGeometry>
        </mxCell>
        <mxCell id="qGyewd1HaiOMTMRlGh1_-3" value="" style="line;strokeWidth=2;direction=south;html=1;" vertex="1" parent="1">
          <mxGeometry x="-696.5" y="13562.5" width="10" height="20" as="geometry" />
        </mxCell>
        <mxCell id="qGyewd1HaiOMTMRlGh1_-4" value="07-03" style="text;html=1;align=center;verticalAlign=middle;resizable=0;points=[];autosize=1;strokeColor=none;fillColor=none;" vertex="1" parent="1">
          <mxGeometry x="-715" y="13592.5" width="50" height="20" as="geometry" />
        </mxCell>
        <mxCell id="qGyewd1HaiOMTMRlGh1_-5" value="" style="line;strokeWidth=2;direction=south;html=1;" vertex="1" parent="1">
          <mxGeometry x="-1161.5" y="13562.5" width="10" height="20" as="geometry" />
        </mxCell>
        <mxCell id="qGyewd1HaiOMTMRlGh1_-6" value="07-02" style="text;html=1;align=center;verticalAlign=middle;resizable=0;points=[];autosize=1;strokeColor=none;fillColor=none;" vertex="1" parent="1">
          <mxGeometry x="-1180" y="13592.5" width="50" height="20" as="geometry" />
        </mxCell>
        <mxCell id="qGyewd1HaiOMTMRlGh1_-7" value="" style="line;strokeWidth=2;direction=south;html=1;" vertex="1" parent="1">
          <mxGeometry x="-1632.63" y="13562.5" width="10" height="20" as="geometry" />
        </mxCell>
        <mxCell id="qGyewd1HaiOMTMRlGh1_-8" value="07-01" style="text;html=1;align=center;verticalAlign=middle;resizable=0;points=[];autosize=1;strokeColor=none;fillColor=none;" vertex="1" parent="1">
          <mxGeometry x="-1651.13" y="13592.5" width="50" height="20" as="geometry" />
        </mxCell>
        <mxCell id="qGyewd1HaiOMTMRlGh1_-10" value="" style="shape=requiredInterface;html=1;verticalLabelPosition=bottom;sketch=0;direction=north;" vertex="1" parent="1">
          <mxGeometry x="-1205" y="13537.5" width="110" height="25" as="geometry" />
        </mxCell>
        <mxCell id="qGyewd1HaiOMTMRlGh1_-11" value="" style="shape=requiredInterface;html=1;verticalLabelPosition=bottom;sketch=0;direction=north;" vertex="1" parent="1">
          <mxGeometry x="-905" y="13542.5" width="30" height="17.5" as="geometry" />
        </mxCell>
        <mxCell id="qGyewd1HaiOMTMRlGh1_-12" value="" style="shape=requiredInterface;html=1;verticalLabelPosition=bottom;sketch=0;direction=north;" vertex="1" parent="1">
          <mxGeometry x="-733.75" y="13537.5" width="118.75" height="25" as="geometry" />
        </mxCell>
        <mxCell id="qGyewd1HaiOMTMRlGh1_-13" value="11:15" style="text;html=1;align=center;verticalAlign=middle;resizable=0;points=[];autosize=1;strokeColor=none;fillColor=none;" vertex="1" parent="1">
          <mxGeometry x="-1419.43" y="13570" width="60" height="30" as="geometry" />
        </mxCell>
        <mxCell id="qGyewd1HaiOMTMRlGh1_-14" value="12:30" style="text;html=1;align=center;verticalAlign=middle;resizable=0;points=[];autosize=1;strokeColor=none;fillColor=none;" vertex="1" parent="1">
          <mxGeometry x="-1355" y="13575" width="50" height="20" as="geometry" />
        </mxCell>
        <mxCell id="qGyewd1HaiOMTMRlGh1_-15" value="18:45" style="text;html=1;align=center;verticalAlign=middle;resizable=0;points=[];autosize=1;strokeColor=none;fillColor=none;" vertex="1" parent="1">
          <mxGeometry x="-1257.5" y="13570" width="60" height="30" as="geometry" />
        </mxCell>
        <mxCell id="qGyewd1HaiOMTMRlGh1_-16" value="01:40" style="text;html=1;align=center;verticalAlign=middle;resizable=0;points=[];autosize=1;strokeColor=none;fillColor=none;" vertex="1" parent="1">
          <mxGeometry x="-1140" y="13575" width="50" height="20" as="geometry" />
        </mxCell>
        <mxCell id="qGyewd1HaiOMTMRlGh1_-17" style="edgeStyle=orthogonalEdgeStyle;rounded=0;orthogonalLoop=1;jettySize=auto;html=1;exitX=0;exitY=0.5;exitDx=0;exitDy=0;exitPerimeter=0;" edge="1" parent="1" source="qGyewd1HaiOMTMRlGh1_-11" target="qGyewd1HaiOMTMRlGh1_-11">
          <mxGeometry relative="1" as="geometry" />
        </mxCell>
        <mxCell id="qGyewd1HaiOMTMRlGh1_-20" value="" style="shape=requiredInterface;html=1;verticalLabelPosition=bottom;sketch=0;direction=north;" vertex="1" parent="1">
          <mxGeometry x="-1361" y="13533.75" width="16" height="25" as="geometry" />
        </mxCell>
        <mxCell id="qGyewd1HaiOMTMRlGh1_-21" value="11:10" style="text;html=1;align=center;verticalAlign=middle;resizable=0;points=[];autosize=1;strokeColor=none;fillColor=none;" vertex="1" parent="1">
          <mxGeometry x="-1385" y="13210" width="60" height="30" as="geometry" />
        </mxCell>
        <mxCell id="qGyewd1HaiOMTMRlGh1_-22" value="8.取预定时间List" style="text;html=1;align=center;verticalAlign=middle;resizable=0;points=[];autosize=1;strokeColor=none;fillColor=none;" vertex="1" parent="1">
          <mxGeometry x="-2045" y="13817.5" width="130" height="30" as="geometry" />
        </mxCell>
        <mxCell id="qGyewd1HaiOMTMRlGh1_-23" value="" style="endArrow=classic;html=1;rounded=0;" edge="1" parent="1">
          <mxGeometry width="50" height="50" relative="1" as="geometry">
            <mxPoint x="-1770.1299999999997" y="13838.749999999998" as="sourcePoint" />
            <mxPoint x="-460.13" y="13838.749999999998" as="targetPoint" />
          </mxGeometry>
        </mxCell>
        <mxCell id="qGyewd1HaiOMTMRlGh1_-24" value="" style="line;strokeWidth=2;direction=south;html=1;" vertex="1" parent="1">
          <mxGeometry x="-701.63" y="13838.75" width="10" height="20" as="geometry" />
        </mxCell>
        <mxCell id="qGyewd1HaiOMTMRlGh1_-25" value="07-03" style="text;html=1;align=center;verticalAlign=middle;resizable=0;points=[];autosize=1;strokeColor=none;fillColor=none;" vertex="1" parent="1">
          <mxGeometry x="-720.13" y="13868.75" width="50" height="20" as="geometry" />
        </mxCell>
        <mxCell id="qGyewd1HaiOMTMRlGh1_-26" value="" style="line;strokeWidth=2;direction=south;html=1;" vertex="1" parent="1">
          <mxGeometry x="-1166.63" y="13838.75" width="10" height="20" as="geometry" />
        </mxCell>
        <mxCell id="qGyewd1HaiOMTMRlGh1_-27" value="07-02" style="text;html=1;align=center;verticalAlign=middle;resizable=0;points=[];autosize=1;strokeColor=none;fillColor=none;" vertex="1" parent="1">
          <mxGeometry x="-1185.13" y="13868.75" width="50" height="20" as="geometry" />
        </mxCell>
        <mxCell id="qGyewd1HaiOMTMRlGh1_-28" value="" style="line;strokeWidth=2;direction=south;html=1;" vertex="1" parent="1">
          <mxGeometry x="-1637.7600000000002" y="13838.75" width="10" height="20" as="geometry" />
        </mxCell>
        <mxCell id="qGyewd1HaiOMTMRlGh1_-29" value="07-01" style="text;html=1;align=center;verticalAlign=middle;resizable=0;points=[];autosize=1;strokeColor=none;fillColor=none;" vertex="1" parent="1">
          <mxGeometry x="-1656.2600000000002" y="13868.75" width="50" height="20" as="geometry" />
        </mxCell>
        <mxCell id="qGyewd1HaiOMTMRlGh1_-30" value="" style="shape=requiredInterface;html=1;verticalLabelPosition=bottom;sketch=0;direction=north;" vertex="1" parent="1">
          <mxGeometry x="-1210.13" y="13813.75" width="110" height="25" as="geometry" />
        </mxCell>
        <mxCell id="qGyewd1HaiOMTMRlGh1_-31" value="" style="shape=requiredInterface;html=1;verticalLabelPosition=bottom;sketch=0;direction=north;" vertex="1" parent="1">
          <mxGeometry x="-910.13" y="13818.75" width="30" height="17.5" as="geometry" />
        </mxCell>
        <mxCell id="qGyewd1HaiOMTMRlGh1_-32" value="" style="shape=requiredInterface;html=1;verticalLabelPosition=bottom;sketch=0;direction=north;" vertex="1" parent="1">
          <mxGeometry x="-738.88" y="13813.75" width="118.75" height="25" as="geometry" />
        </mxCell>
        <mxCell id="qGyewd1HaiOMTMRlGh1_-33" value="11:15" style="text;html=1;align=center;verticalAlign=middle;resizable=0;points=[];autosize=1;strokeColor=none;fillColor=none;" vertex="1" parent="1">
          <mxGeometry x="-1424.5600000000002" y="13846.25" width="60" height="30" as="geometry" />
        </mxCell>
        <mxCell id="qGyewd1HaiOMTMRlGh1_-34" value="12:30" style="text;html=1;align=center;verticalAlign=middle;resizable=0;points=[];autosize=1;strokeColor=none;fillColor=none;" vertex="1" parent="1">
          <mxGeometry x="-1360.13" y="13851.25" width="50" height="20" as="geometry" />
        </mxCell>
        <mxCell id="qGyewd1HaiOMTMRlGh1_-35" value="18:45" style="text;html=1;align=center;verticalAlign=middle;resizable=0;points=[];autosize=1;strokeColor=none;fillColor=none;" vertex="1" parent="1">
          <mxGeometry x="-1262.63" y="13846.25" width="60" height="30" as="geometry" />
        </mxCell>
        <mxCell id="qGyewd1HaiOMTMRlGh1_-36" value="01:40" style="text;html=1;align=center;verticalAlign=middle;resizable=0;points=[];autosize=1;strokeColor=none;fillColor=none;" vertex="1" parent="1">
          <mxGeometry x="-1145.13" y="13851.25" width="50" height="20" as="geometry" />
        </mxCell>
        <mxCell id="qGyewd1HaiOMTMRlGh1_-37" style="edgeStyle=orthogonalEdgeStyle;rounded=0;orthogonalLoop=1;jettySize=auto;html=1;exitX=0;exitY=0.5;exitDx=0;exitDy=0;exitPerimeter=0;" edge="1" parent="1" source="qGyewd1HaiOMTMRlGh1_-31" target="qGyewd1HaiOMTMRlGh1_-31">
          <mxGeometry relative="1" as="geometry" />
        </mxCell>
        <mxCell id="qGyewd1HaiOMTMRlGh1_-38" value="" style="shape=requiredInterface;html=1;verticalLabelPosition=bottom;sketch=0;direction=north;" vertex="1" parent="1">
          <mxGeometry x="-1366.13" y="13810" width="16" height="25" as="geometry" />
        </mxCell>
        <mxCell id="qGyewd1HaiOMTMRlGh1_-40" value="" style="line;strokeWidth=2;direction=south;html=1;" vertex="1" parent="1">
          <mxGeometry x="-1363.13" y="13812.5" width="10" height="30" as="geometry" />
        </mxCell>
        <mxCell id="qGyewd1HaiOMTMRlGh1_-65" value="" style="line;strokeWidth=2;direction=south;html=1;" vertex="1" parent="1">
          <mxGeometry x="-1147.13" y="13813.75" width="10" height="30" as="geometry" />
        </mxCell>
        <mxCell id="qGyewd1HaiOMTMRlGh1_-66" value="" style="line;strokeWidth=2;direction=south;html=1;" vertex="1" parent="1">
          <mxGeometry x="-1200.88" y="13822.5" width="10" height="20" as="geometry" />
        </mxCell>
        <mxCell id="qGyewd1HaiOMTMRlGh1_-67" value="" style="line;strokeWidth=2;direction=south;html=1;" vertex="1" parent="1">
          <mxGeometry x="-1122.13" y="13818.75" width="10" height="20" as="geometry" />
        </mxCell>
        <mxCell id="qGyewd1HaiOMTMRlGh1_-68" value="" style="line;strokeWidth=2;direction=south;html=1;" vertex="1" parent="1">
          <mxGeometry x="-684.5" y="13810" width="10" height="30" as="geometry" />
        </mxCell>
        <mxCell id="qGyewd1HaiOMTMRlGh1_-69" value="" style="line;strokeWidth=2;direction=south;html=1;" vertex="1" parent="1">
          <mxGeometry x="-1173.63" y="13812.5" width="10" height="30" as="geometry" />
        </mxCell>
        <mxCell id="qGyewd1HaiOMTMRlGh1_-75" value="" style="line;strokeWidth=2;direction=south;html=1;" vertex="1" parent="1">
          <mxGeometry x="-913.88" y="13823.75" width="33.75" height="20" as="geometry" />
        </mxCell>
        <mxCell id="qGyewd1HaiOMTMRlGh1_-79" value="" style="line;strokeWidth=2;direction=south;html=1;" vertex="1" parent="1">
          <mxGeometry x="-660.88" y="13816.25" width="33.75" height="20" as="geometry" />
        </mxCell>
        <mxCell id="qGyewd1HaiOMTMRlGh1_-80" value="" style="line;strokeWidth=2;direction=south;html=1;" vertex="1" parent="1">
          <mxGeometry x="-736.5" y="13818.75" width="33.75" height="20" as="geometry" />
        </mxCell>
        <mxCell id="qGyewd1HaiOMTMRlGh1_-82" value="lpd_infra.&lt;br&gt;prediction_biz" style="whiteSpace=wrap;html=1;" vertex="1" parent="1">
          <mxGeometry x="-2080" y="15470" width="120" height="60" as="geometry" />
        </mxCell>
        <mxCell id="qGyewd1HaiOMTMRlGh1_-91" style="edgeStyle=orthogonalEdgeStyle;rounded=0;orthogonalLoop=1;jettySize=auto;html=1;" edge="1" parent="1" source="qGyewd1HaiOMTMRlGh1_-83" target="qGyewd1HaiOMTMRlGh1_-82">
          <mxGeometry relative="1" as="geometry">
            <Array as="points">
              <mxPoint x="-2160" y="15510" />
            </Array>
          </mxGeometry>
        </mxCell>
        <mxCell id="qGyewd1HaiOMTMRlGh1_-83" value="alsc-delivery-service" style="whiteSpace=wrap;html=1;" vertex="1" parent="1">
          <mxGeometry x="-2220" y="15280" width="120" height="60" as="geometry" />
        </mxCell>
        <mxCell id="qGyewd1HaiOMTMRlGh1_-90" style="edgeStyle=orthogonalEdgeStyle;rounded=0;orthogonalLoop=1;jettySize=auto;html=1;" edge="1" parent="1" source="qGyewd1HaiOMTMRlGh1_-84" target="qGyewd1HaiOMTMRlGh1_-83">
          <mxGeometry relative="1" as="geometry" />
        </mxCell>
        <mxCell id="qGyewd1HaiOMTMRlGh1_-93" value="1.1渲染询T" style="edgeLabel;html=1;align=center;verticalAlign=middle;resizable=0;points=[];" vertex="1" connectable="0" parent="qGyewd1HaiOMTMRlGh1_-90">
          <mxGeometry x="0.2688" y="-3" relative="1" as="geometry">
            <mxPoint as="offset" />
          </mxGeometry>
        </mxCell>
        <mxCell id="qGyewd1HaiOMTMRlGh1_-92" style="edgeStyle=orthogonalEdgeStyle;rounded=0;orthogonalLoop=1;jettySize=auto;html=1;entryX=0.5;entryY=0;entryDx=0;entryDy=0;" edge="1" parent="1" source="qGyewd1HaiOMTMRlGh1_-84" target="qGyewd1HaiOMTMRlGh1_-82">
          <mxGeometry relative="1" as="geometry" />
        </mxCell>
        <mxCell id="qGyewd1HaiOMTMRlGh1_-94" value="1.2下单询T" style="edgeLabel;html=1;align=center;verticalAlign=middle;resizable=0;points=[];" vertex="1" connectable="0" parent="qGyewd1HaiOMTMRlGh1_-92">
          <mxGeometry x="-0.6416" y="-2" relative="1" as="geometry">
            <mxPoint as="offset" />
          </mxGeometry>
        </mxCell>
        <mxCell id="qGyewd1HaiOMTMRlGh1_-96" style="edgeStyle=orthogonalEdgeStyle;rounded=0;orthogonalLoop=1;jettySize=auto;html=1;" edge="1" parent="1" source="qGyewd1HaiOMTMRlGh1_-84" target="qGyewd1HaiOMTMRlGh1_-95">
          <mxGeometry relative="1" as="geometry" />
        </mxCell>
        <mxCell id="qGyewd1HaiOMTMRlGh1_-97" value="1.3创建订单" style="edgeLabel;html=1;align=center;verticalAlign=middle;resizable=0;points=[];" vertex="1" connectable="0" parent="qGyewd1HaiOMTMRlGh1_-96">
          <mxGeometry x="0.0051" relative="1" as="geometry">
            <mxPoint x="-1" as="offset" />
          </mxGeometry>
        </mxCell>
        <mxCell id="qGyewd1HaiOMTMRlGh1_-84" value="alsc-buy2&lt;br&gt;" style="whiteSpace=wrap;html=1;" vertex="1" parent="1">
          <mxGeometry x="-2080" y="15060" width="120" height="60" as="geometry" />
        </mxCell>
        <mxCell id="qGyewd1HaiOMTMRlGh1_-87" style="edgeStyle=orthogonalEdgeStyle;rounded=0;orthogonalLoop=1;jettySize=auto;html=1;" edge="1" parent="1" source="qGyewd1HaiOMTMRlGh1_-85" target="qGyewd1HaiOMTMRlGh1_-84">
          <mxGeometry relative="1" as="geometry" />
        </mxCell>
        <mxCell id="qGyewd1HaiOMTMRlGh1_-89" value="1.下单" style="edgeLabel;html=1;align=center;verticalAlign=middle;resizable=0;points=[];" vertex="1" connectable="0" parent="qGyewd1HaiOMTMRlGh1_-87">
          <mxGeometry x="0.4161" y="-2" relative="1" as="geometry">
            <mxPoint as="offset" />
          </mxGeometry>
        </mxCell>
        <mxCell id="qGyewd1HaiOMTMRlGh1_-120" style="edgeStyle=orthogonalEdgeStyle;rounded=0;orthogonalLoop=1;jettySize=auto;html=1;entryX=0.5;entryY=0;entryDx=0;entryDy=0;" edge="1" parent="1" source="qGyewd1HaiOMTMRlGh1_-85" target="qGyewd1HaiOMTMRlGh1_-118">
          <mxGeometry relative="1" as="geometry" />
        </mxCell>
        <mxCell id="qGyewd1HaiOMTMRlGh1_-121" value="查看订单详情" style="edgeLabel;html=1;align=center;verticalAlign=middle;resizable=0;points=[];" vertex="1" connectable="0" parent="qGyewd1HaiOMTMRlGh1_-120">
          <mxGeometry x="0.0076" y="1" relative="1" as="geometry">
            <mxPoint as="offset" />
          </mxGeometry>
        </mxCell>
        <mxCell id="qGyewd1HaiOMTMRlGh1_-125" style="edgeStyle=orthogonalEdgeStyle;rounded=0;orthogonalLoop=1;jettySize=auto;html=1;" edge="1" parent="1" source="qGyewd1HaiOMTMRlGh1_-85">
          <mxGeometry relative="1" as="geometry">
            <mxPoint x="-636" y="14650" as="targetPoint" />
            <Array as="points">
              <mxPoint x="-636.5" y="14230" />
              <mxPoint x="-636.5" y="14500" />
            </Array>
          </mxGeometry>
        </mxCell>
        <mxCell id="qGyewd1HaiOMTMRlGh1_-126" value="查看&lt;span style=&quot;font-size: 13px;&quot;&gt;C端IM界面&lt;/span&gt;" style="edgeLabel;html=1;align=center;verticalAlign=middle;resizable=0;points=[];" vertex="1" connectable="0" parent="qGyewd1HaiOMTMRlGh1_-125">
          <mxGeometry x="0.513" y="2" relative="1" as="geometry">
            <mxPoint x="-10" y="-90" as="offset" />
          </mxGeometry>
        </mxCell>
        <mxCell id="qGyewd1HaiOMTMRlGh1_-145" style="edgeStyle=orthogonalEdgeStyle;rounded=0;orthogonalLoop=1;jettySize=auto;html=1;entryX=0.5;entryY=0;entryDx=0;entryDy=0;" edge="1" parent="1" source="qGyewd1HaiOMTMRlGh1_-85" target="qGyewd1HaiOMTMRlGh1_-108">
          <mxGeometry relative="1" as="geometry">
            <mxPoint x="-1661" y="14470" as="targetPoint" />
          </mxGeometry>
        </mxCell>
        <mxCell id="qGyewd1HaiOMTMRlGh1_-146" value="订单列表浮窗" style="edgeLabel;html=1;align=center;verticalAlign=middle;resizable=0;points=[];" vertex="1" connectable="0" parent="qGyewd1HaiOMTMRlGh1_-145">
          <mxGeometry x="0.5109" y="1" relative="1" as="geometry">
            <mxPoint y="106" as="offset" />
          </mxGeometry>
        </mxCell>
        <mxCell id="qGyewd1HaiOMTMRlGh1_-149" style="edgeStyle=orthogonalEdgeStyle;rounded=0;orthogonalLoop=1;jettySize=auto;html=1;entryX=0;entryY=0.5;entryDx=0;entryDy=0;" edge="1" parent="1" source="qGyewd1HaiOMTMRlGh1_-85" target="qGyewd1HaiOMTMRlGh1_-108">
          <mxGeometry relative="1" as="geometry">
            <Array as="points">
              <mxPoint x="-1860" y="14230" />
              <mxPoint x="-1860" y="14550" />
            </Array>
          </mxGeometry>
        </mxCell>
        <mxCell id="qGyewd1HaiOMTMRlGh1_-150" value="订单列表" style="edgeLabel;html=1;align=center;verticalAlign=middle;resizable=0;points=[];" vertex="1" connectable="0" parent="qGyewd1HaiOMTMRlGh1_-149">
          <mxGeometry x="0.6496" y="-1" relative="1" as="geometry">
            <mxPoint x="-4" y="-29" as="offset" />
          </mxGeometry>
        </mxCell>
        <mxCell id="qGyewd1HaiOMTMRlGh1_-151" style="edgeStyle=orthogonalEdgeStyle;rounded=0;orthogonalLoop=1;jettySize=auto;html=1;entryX=1;entryY=0.5;entryDx=0;entryDy=0;" edge="1" parent="1" source="qGyewd1HaiOMTMRlGh1_-85" target="qGyewd1HaiOMTMRlGh1_-108">
          <mxGeometry relative="1" as="geometry">
            <Array as="points">
              <mxPoint x="-1570" y="14230" />
              <mxPoint x="-1570" y="14550" />
            </Array>
          </mxGeometry>
        </mxCell>
        <mxCell id="qGyewd1HaiOMTMRlGh1_-152" value="首页场景卡" style="edgeLabel;html=1;align=center;verticalAlign=middle;resizable=0;points=[];" vertex="1" connectable="0" parent="qGyewd1HaiOMTMRlGh1_-151">
          <mxGeometry x="0.2593" y="1" relative="1" as="geometry">
            <mxPoint x="5" y="99" as="offset" />
          </mxGeometry>
        </mxCell>
        <mxCell id="qGyewd1HaiOMTMRlGh1_-85" value="用户" style="shape=umlActor;verticalLabelPosition=bottom;verticalAlign=top;html=1;outlineConnect=0;" vertex="1" parent="1">
          <mxGeometry x="-1005.1300000000001" y="14200" width="30" height="60" as="geometry" />
        </mxCell>
        <mxCell id="qGyewd1HaiOMTMRlGh1_-95" value="TP3" style="whiteSpace=wrap;html=1;" vertex="1" parent="1">
          <mxGeometry x="-1593.43" y="15060" width="120" height="60" as="geometry" />
        </mxCell>
        <mxCell id="qGyewd1HaiOMTMRlGh1_-102" style="edgeStyle=orthogonalEdgeStyle;rounded=0;orthogonalLoop=1;jettySize=auto;html=1;entryX=1;entryY=0.5;entryDx=0;entryDy=0;" edge="1" parent="1" source="qGyewd1HaiOMTMRlGh1_-98" target="qGyewd1HaiOMTMRlGh1_-95">
          <mxGeometry relative="1" as="geometry" />
        </mxCell>
        <mxCell id="qGyewd1HaiOMTMRlGh1_-98" value="alsc-trade-center" style="whiteSpace=wrap;html=1;" vertex="1" parent="1">
          <mxGeometry x="-1050.13" y="15060" width="120" height="60" as="geometry" />
        </mxCell>
        <mxCell id="qGyewd1HaiOMTMRlGh1_-101" value="" style="html=1;verticalAlign=bottom;labelBackgroundColor=none;endArrow=block;endFill=1;dashed=1;rounded=0;entryX=0;entryY=0.25;entryDx=0;entryDy=0;exitX=0.016;exitY=1.067;exitDx=0;exitDy=0;exitPerimeter=0;" edge="1" parent="1" source="qGyewd1HaiOMTMRlGh1_-103" target="qGyewd1HaiOMTMRlGh1_-98">
          <mxGeometry width="160" relative="1" as="geometry">
            <mxPoint x="-1563.5" y="15075" as="sourcePoint" />
            <mxPoint x="-1393.5" y="15270" as="targetPoint" />
          </mxGeometry>
        </mxCell>
        <mxCell id="qGyewd1HaiOMTMRlGh1_-103" value="1.4 订单创建消息" style="text;html=1;align=center;verticalAlign=middle;resizable=0;points=[];autosize=1;strokeColor=none;fillColor=none;" vertex="1" parent="1">
          <mxGeometry x="-1475.67" y="15045" width="140" height="30" as="geometry" />
        </mxCell>
        <mxCell id="qGyewd1HaiOMTMRlGh1_-104" value="1.5反查tp订单落单" style="text;html=1;align=center;verticalAlign=middle;resizable=0;points=[];autosize=1;strokeColor=none;fillColor=none;" vertex="1" parent="1">
          <mxGeometry x="-1474.5400000000002" y="15090" width="150" height="30" as="geometry" />
        </mxCell>
        <mxCell id="qGyewd1HaiOMTMRlGh1_-111" style="edgeStyle=orthogonalEdgeStyle;rounded=0;orthogonalLoop=1;jettySize=auto;html=1;entryX=0.85;entryY=0.05;entryDx=0;entryDy=0;entryPerimeter=0;" edge="1" parent="1" source="qGyewd1HaiOMTMRlGh1_-106" target="qGyewd1HaiOMTMRlGh1_-109">
          <mxGeometry relative="1" as="geometry" />
        </mxCell>
        <mxCell id="qGyewd1HaiOMTMRlGh1_-106" value="alsc-consume-conter" style="whiteSpace=wrap;html=1;" vertex="1" parent="1">
          <mxGeometry x="-1475" y="14790" width="120" height="60" as="geometry" />
        </mxCell>
        <mxCell id="qGyewd1HaiOMTMRlGh1_-124" style="edgeStyle=orthogonalEdgeStyle;rounded=0;orthogonalLoop=1;jettySize=auto;html=1;entryX=0;entryY=0.5;entryDx=0;entryDy=0;" edge="1" parent="1" source="qGyewd1HaiOMTMRlGh1_-107" target="qGyewd1HaiOMTMRlGh1_-109">
          <mxGeometry relative="1" as="geometry">
            <Array as="points">
              <mxPoint x="-1721" y="14913" />
            </Array>
          </mxGeometry>
        </mxCell>
        <mxCell id="qGyewd1HaiOMTMRlGh1_-107" value="alsc-consume-query" style="whiteSpace=wrap;html=1;" vertex="1" parent="1">
          <mxGeometry x="-1781.13" y="14670" width="120" height="60" as="geometry" />
        </mxCell>
        <mxCell id="qGyewd1HaiOMTMRlGh1_-114" style="edgeStyle=orthogonalEdgeStyle;rounded=0;orthogonalLoop=1;jettySize=auto;html=1;entryX=0.5;entryY=0;entryDx=0;entryDy=0;" edge="1" parent="1" source="qGyewd1HaiOMTMRlGh1_-108" target="qGyewd1HaiOMTMRlGh1_-107">
          <mxGeometry relative="1" as="geometry" />
        </mxCell>
        <mxCell id="qGyewd1HaiOMTMRlGh1_-108" value="alsc-personal&lt;br&gt;" style="whiteSpace=wrap;html=1;" vertex="1" parent="1">
          <mxGeometry x="-1781.1299999999999" y="14520" width="120" height="60" as="geometry" />
        </mxCell>
        <mxCell id="qGyewd1HaiOMTMRlGh1_-109" value="" style="shape=datastore;whiteSpace=wrap;html=1;" vertex="1" parent="1">
          <mxGeometry x="-1593.5" y="14883" width="60" height="60" as="geometry" />
        </mxCell>
        <mxCell id="qGyewd1HaiOMTMRlGh1_-110" value="" style="html=1;verticalAlign=bottom;labelBackgroundColor=none;endArrow=block;endFill=1;dashed=1;rounded=0;exitX=0.25;exitY=0;exitDx=0;exitDy=0;entryX=1;entryY=0.5;entryDx=0;entryDy=0;" edge="1" parent="1" source="qGyewd1HaiOMTMRlGh1_-98" target="qGyewd1HaiOMTMRlGh1_-106">
          <mxGeometry width="160" relative="1" as="geometry">
            <mxPoint x="-1055.6299999999997" y="14932.01" as="sourcePoint" />
            <mxPoint x="-1111.5" y="14820" as="targetPoint" />
            <Array as="points">
              <mxPoint x="-1020.5" y="14820" />
            </Array>
          </mxGeometry>
        </mxCell>
        <mxCell id="qGyewd1HaiOMTMRlGh1_-155" value="订单消息" style="edgeLabel;html=1;align=center;verticalAlign=middle;resizable=0;points=[];" vertex="1" connectable="0" parent="qGyewd1HaiOMTMRlGh1_-110">
          <mxGeometry x="0.3277" y="2" relative="1" as="geometry">
            <mxPoint x="1" as="offset" />
          </mxGeometry>
        </mxCell>
        <mxCell id="qGyewd1HaiOMTMRlGh1_-122" style="edgeStyle=orthogonalEdgeStyle;rounded=0;orthogonalLoop=1;jettySize=auto;html=1;entryX=0.5;entryY=0;entryDx=0;entryDy=0;" edge="1" parent="1" source="qGyewd1HaiOMTMRlGh1_-118" target="qGyewd1HaiOMTMRlGh1_-119">
          <mxGeometry relative="1" as="geometry" />
        </mxCell>
        <mxCell id="qGyewd1HaiOMTMRlGh1_-118" value="ele-waimai-tm" style="whiteSpace=wrap;html=1;" vertex="1" parent="1">
          <mxGeometry x="-1050.13" y="14520" width="120" height="60" as="geometry" />
        </mxCell>
        <mxCell id="qGyewd1HaiOMTMRlGh1_-123" style="edgeStyle=orthogonalEdgeStyle;rounded=0;orthogonalLoop=1;jettySize=auto;html=1;entryX=0.5;entryY=0;entryDx=0;entryDy=0;" edge="1" parent="1" source="qGyewd1HaiOMTMRlGh1_-119" target="qGyewd1HaiOMTMRlGh1_-98">
          <mxGeometry relative="1" as="geometry">
            <mxPoint x="-989" y="15030" as="targetPoint" />
          </mxGeometry>
        </mxCell>
        <mxCell id="qGyewd1HaiOMTMRlGh1_-119" value="alsc-trade-aggregation" style="whiteSpace=wrap;html=1;" vertex="1" parent="1">
          <mxGeometry x="-1049" y="14670" width="120" height="60" as="geometry" />
        </mxCell>
        <mxCell id="qGyewd1HaiOMTMRlGh1_-127" value="&lt;span style=&quot;&quot;&gt;RD:渊盛&lt;/span&gt;&lt;br style=&quot;&quot;&gt;&lt;span style=&quot;&quot;&gt;PD:&lt;/span&gt;&lt;span style=&quot;font-size: 14px; background-color: initial; color: rgb(18, 20, 22); font-family: &amp;quot;PingFang SC&amp;quot;; text-align: start;&quot;&gt;侒兹&lt;/span&gt;" style="text;html=1;align=center;verticalAlign=middle;resizable=0;points=[];autosize=1;strokeColor=none;fillColor=none;" vertex="1" parent="1">
          <mxGeometry x="-1870" y="14300" width="80" height="50" as="geometry" />
        </mxCell>
        <mxCell id="qGyewd1HaiOMTMRlGh1_-128" value="&lt;span style=&quot;&quot;&gt;RD: 张光耀&lt;/span&gt;&lt;br style=&quot;&quot;&gt;&lt;span style=&quot;&quot;&gt;PD:&lt;/span&gt;&lt;span style=&quot;font-size: 14px; color: rgb(18, 20, 22); font-family: &amp;quot;PingFang SC&amp;quot;; text-align: start;&quot;&gt;泾冬&lt;/span&gt;" style="text;html=1;align=center;verticalAlign=middle;resizable=0;points=[];autosize=1;strokeColor=none;fillColor=none;" vertex="1" parent="1">
          <mxGeometry x="-945" y="14370" width="100" height="50" as="geometry" />
        </mxCell>
        <mxCell id="qGyewd1HaiOMTMRlGh1_-129" value="&lt;span style=&quot;&quot;&gt;RD:json&lt;/span&gt;&lt;br style=&quot;&quot;&gt;&lt;span style=&quot;&quot;&gt;PD:&lt;/span&gt;&lt;span style=&quot;font-size: 14px; background-color: initial; color: rgb(18, 20, 22); font-family: &amp;quot;PingFang SC&amp;quot;; text-align: start;&quot;&gt;泾冬&lt;/span&gt;" style="text;html=1;align=center;verticalAlign=middle;resizable=0;points=[];autosize=1;strokeColor=none;fillColor=none;" vertex="1" parent="1">
          <mxGeometry x="-2148" y="14510" width="80" height="50" as="geometry" />
        </mxCell>
        <mxCell id="qGyewd1HaiOMTMRlGh1_-130" value="RD:&amp;nbsp;双杰和原典&lt;br&gt;PD:&amp;nbsp;&lt;span style=&quot;color: rgb(18, 20, 22); font-family: &amp;quot;PingFang SC&amp;quot;; font-size: 14px; text-align: start; background-color: initial;&quot;&gt;侒兹&lt;/span&gt;" style="text;html=1;align=center;verticalAlign=middle;resizable=0;points=[];autosize=1;strokeColor=none;fillColor=none;" vertex="1" parent="1">
          <mxGeometry x="-571" y="14390" width="130" height="50" as="geometry" />
        </mxCell>
        <mxCell id="qGyewd1HaiOMTMRlGh1_-139" value="RD：渊盛&lt;br&gt;PD：&lt;span style=&quot;color: rgb(18, 20, 22); font-family: &amp;quot;PingFang SC&amp;quot;; font-size: 14px; text-align: start; background-color: initial;&quot;&gt;楔丸&lt;/span&gt;" style="text;html=1;align=center;verticalAlign=middle;resizable=0;points=[];autosize=1;strokeColor=none;fillColor=none;" vertex="1" parent="1">
          <mxGeometry x="-1722.6299999999999" y="14290" width="90" height="50" as="geometry" />
        </mxCell>
        <mxCell id="qGyewd1HaiOMTMRlGh1_-141" value="RD：渊盛&lt;br&gt;PD：&lt;span style=&quot;color: rgb(18, 20, 22); font-family: &amp;quot;PingFang SC&amp;quot;; font-size: 14px; text-align: start; background-color: initial;&quot;&gt;楔丸&lt;/span&gt;" style="text;html=1;align=center;verticalAlign=middle;resizable=0;points=[];autosize=1;strokeColor=none;fillColor=none;" vertex="1" parent="1">
          <mxGeometry x="-1565.67" y="14300" width="90" height="50" as="geometry" />
        </mxCell>
        <mxCell id="qGyewd1HaiOMTMRlGh1_-142" value="RD：桥溪" style="text;html=1;align=center;verticalAlign=middle;resizable=0;points=[];autosize=1;strokeColor=none;fillColor=none;" vertex="1" parent="1">
          <mxGeometry x="-1570" y="14760" width="90" height="30" as="geometry" />
        </mxCell>
      </root>
    </mxGraphModel>
  </diagram>
</mxfile>
